<?xml version="1.0" standalone="no"?>
<!DOCTYPE svg PUBLIC "-//W3C//DTD SVG 20010904//EN"
 "http://www.w3.org/TR/2001/REC-SVG-20010904/DTD/svg10.dtd">
<svg version="1.0" xmlns="http://www.w3.org/2000/svg"
 width="500.000000pt" height="500.000000pt" viewBox="0 0 500.000000 500.000000"
 preserveAspectRatio="xMidYMid meet">

<g transform="translate(0.000000,500.000000) scale(0.100000,-0.100000)"
fill="#1147e0" stroke="none">
<path d="M1785 3884 c-44 -22 -85 -64 -101 -101 -11 -25 -14 -92 -14 -282 l0
-251 26 -6 c50 -13 52 0 53 290 l1 219 36 33 35 34 735 0 734 0 0 -200 c0
-224 6 -251 61 -291 33 -23 41 -24 247 -27 l212 -3 0 -1015 c0 -1114 3 -1056
-60 -1089 -24 -12 -79 -15 -319 -15 l-291 0 11 28 c19 48 12 119 -15 165 -13
23 -114 131 -224 239 -191 190 -201 198 -239 198 -32 0 -45 7 -77 39 l-38 39
35 59 c74 122 109 255 109 413 -1 133 -25 232 -89 360 -39 79 -63 111 -138
186 -105 106 -188 159 -325 205 -89 31 -104 33 -235 33 -117 0 -153 -3 -220
-23 -221 -64 -402 -214 -501 -418 -153 -312 -92 -668 155 -913 96 -95 189
-153 316 -196 66 -22 103 -28 207 -32 182 -6 308 25 451 111 l48 30 40 -39
c28 -28 39 -46 39 -69 0 -16 4 -36 9 -44 5 -8 89 -94 186 -193 l178 -178 -503
0 -502 0 -34 34 c-33 33 -34 36 -34 118 0 45 -3 93 -6 105 -7 25 -32 37 -58
27 -13 -5 -16 -23 -16 -112 0 -131 19 -179 88 -223 l46 -29 968 0 c933 0 970
1 1006 19 47 24 77 56 97 103 13 33 15 160 15 1060 0 705 -3 1035 -11 1063 -9
33 -53 82 -247 279 -152 152 -251 245 -277 257 -38 18 -79 19 -790 19 -660 0
-754 -2 -780 -16z m1788 -492 c-217 -3 -203 -18 -203 207 l0 166 185 -185 185
-185 -167 -3z m-1524 -337 c274 -58 497 -274 556 -540 26 -114 17 -293 -20
-397 -70 -202 -244 -374 -450 -444 -107 -37 -278 -45 -387 -19 -464 111 -692
615 -470 1039 44 84 168 218 246 265 164 98 351 133 525 96z m489 -1332 l-32
-33 -33 32 -33 32 32 33 32 33 33 -32 33 -32 -32 -33z m341 -197 l203 -204 0
-43 c-1 -59 -43 -99 -104 -99 -41 0 -46 4 -247 205 l-206 205 70 70 c38 38 72
70 75 70 3 0 97 -92 209 -204z"/>
<path d="M1835 2983 c-262 -36 -477 -225 -541 -473 -16 -64 -13 -95 12 -104
29 -11 50 12 63 67 61 275 334 466 610 427 405 -57 612 -507 390 -850 l-39
-61 -38 40 c-39 41 -98 64 -193 77 -44 6 -49 9 -49 31 0 14 15 43 35 65 19 23
40 57 46 77 7 20 23 49 36 65 24 28 24 34 21 157 -3 136 -12 159 -65 180 -13
5 -23 15 -23 23 0 8 -14 26 -31 40 -29 25 -35 26 -162 26 -149 0 -192 -13
-240 -69 -39 -46 -49 -99 -45 -229 3 -104 5 -115 26 -132 12 -10 22 -24 22
-32 0 -18 54 -111 74 -127 9 -7 16 -26 16 -41 0 -26 -3 -29 -52 -35 -78 -11
-159 -44 -191 -78 -24 -26 -30 -28 -42 -16 -31 31 -84 133 -95 182 -15 65 -35
97 -60 97 -66 0 -26 -165 75 -305 90 -126 232 -219 385 -251 97 -21 231 -14
320 16 193 64 353 225 413 415 30 94 31 282 3 365 -81 240 -265 404 -500 445
-87 15 -121 16 -181 8z m193 -318 c5 -28 30 -53 55 -57 12 -2 23 -11 25 -20 3
-16 -5 -18 -60 -18 -46 0 -77 -7 -116 -25 -45 -21 -69 -25 -143 -25 l-89 0 0
34 c0 53 20 96 54 117 27 17 47 19 151 17 111 -3 120 -4 123 -23z m80 -222 c2
-33 -1 -44 -16 -52 -12 -6 -23 -26 -27 -48 -17 -92 -95 -151 -181 -138 -61 9
-118 63 -135 128 -6 26 -21 54 -32 62 -12 8 -17 20 -14 29 5 13 24 16 99 16
78 0 101 4 143 25 37 18 64 23 105 22 l55 -2 3 -42z m-140 -347 c-2 -23 -9
-31 -33 -38 -16 -4 -43 -4 -60 0 -24 7 -31 14 -33 38 l-3 29 66 0 66 0 -3 -29z
m-188 -80 c6 -8 34 -22 62 -32 43 -14 59 -15 104 -5 29 7 65 22 79 33 25 20
31 20 93 9 77 -14 116 -35 131 -68 6 -13 11 -26 11 -27 0 -2 -23 -19 -51 -36
-156 -101 -358 -116 -526 -40 -82 37 -123 67 -123 89 0 28 41 59 100 75 71 19
105 19 120 2z"/>
<path d="M1967 3624 c-38 -21 -47 -50 -47 -154 0 -105 9 -134 49 -155 44 -22
857 -23 901 0 39 20 53 76 48 184 -4 79 -6 86 -36 113 l-32 28 -428 0 c-362
-1 -431 -3 -455 -16z m863 -154 l0 -80 -415 0 -415 0 0 80 0 80 415 0 415 0 0
-80z"/>
<path d="M2840 2810 c-8 -16 -6 -24 10 -40 19 -19 32 -20 378 -20 386 0 397 1
390 51 l-3 24 -382 3 c-373 2 -382 2 -393 -18z"/>
<path d="M2846 2571 c-14 -16 -15 -24 -6 -40 11 -21 14 -21 393 -19 l382 3 3
24 c7 50 -4 51 -393 51 -344 0 -363 -1 -379 -19z"/>
<path d="M2846 2324 c-19 -19 -20 -25 -3 -47 11 -16 44 -17 392 -15 l380 3 3
23 c8 52 8 52 -389 52 -321 0 -370 -2 -383 -16z"/>
<path d="M2840 2071 c-13 -26 -3 -50 24 -56 11 -3 104 -4 205 -3 162 3 185 5
195 21 8 12 8 22 0 35 -10 15 -33 17 -212 20 -191 2 -202 1 -212 -17z"/>
</g>
</svg>
